<svg class="border shadow-md" viewBox="0 0 1345.4222222222222 756.8" style="width: 1345.42px; height: 756.8px;" xmlns="http://www.w3.org/2000/svg" preserveAspectRatio="none"><rect class="bg" id="bg" x="0" y="0" width="1345.4222222222222" height="756.8" fill="#ffffff"></rect><path d="M 0 -75.67999999999999 L 0 -75.68
                L 120.00 -37.84
                L 269.08444444444444 -75.68 L 269.08444444444444 -75.68
                L 358.78 -26.68
                L 538.1688888888889 -75.68 L 538.1688888888889 -75.68
                L 694.17 -12.68
                L 807.2533333333333 -75.68 L 807.2533333333333 -75.68
                L 927.25 -4.68
                L 1076.3377777777778 -75.68 L 1076.3377777777778 -75.68
                L 1166.03 -30.68
                L 1345.4222222222222 -75.68 L 1345.4222222222222 -75.68
                L 1435.12 -37.84
                L 1614.5066666666667 -75.68  V 756.80 H 0 V -75.68 Z" fill="#15141C"></path><path d="M 0 0 L 0 0.00
                L 115.00 37.84
                L 269.08444444444444 0.00 L 269.08444444444444 0.00
                L 358.78 40.00
                L 538.1688888888889 0.00 L 538.1688888888889 0.00
                L 718.17 37.84
                L 807.2533333333333 0.00 L 807.2533333333333 0.00
                L 896.95 63.00
                L 1076.3377777777778 0.00 L 1076.3377777777778 0.00
                L 1241.34 37.84
                L 1345.4222222222222 0.00 L 1345.4222222222222 0.00
                L 1435.12 37.84
                L 1614.5066666666667 0.00  V 756.80 H 0 V 0.00 Z" fill="#17161f"></path><path d="M 0 75.67999999999999 L 0 75.68
                L 96.00 120.68
                L 269.08444444444444 75.68 L 269.08444444444444 75.68
                L 358.78 118.68
                L 538.1688888888889 75.68 L 538.1688888888889 75.68
                L 697.17 113.52
                L 807.2533333333333 75.68 L 807.2533333333333 75.68
                L 896.95 113.52
                L 1076.3377777777778 75.68 L 1076.3377777777778 75.68
                L 1214.34 113.52
                L 1345.4222222222222 75.68 L 1345.4222222222222 75.68
                L 1491.42 113.52
                L 1614.5066666666667 75.68  V 756.80 H 0 V 75.68 Z" fill="#191822"></path><path d="M 0 151.35999999999999 L 0 151.36
                L 139.00 189.20
                L 269.08444444444444 151.36 L 269.08444444444444 151.36
                L 401.08 219.36
                L 538.1688888888889 151.36 L 538.1688888888889 151.36
                L 692.17 189.20
                L 807.2533333333333 151.36 L 807.2533333333333 151.36
                L 982.25 189.20
                L 1076.3377777777778 151.36 L 1076.3377777777778 151.36
                L 1166.03 207.36
                L 1345.4222222222222 151.36 L 1345.4222222222222 151.36
                L 1435.12 189.20
                L 1614.5066666666667 151.36  V 756.80 H 0 V 151.36 Z" fill="#1b1a25"></path><path d="M 0 227.03999999999996 L 0 227.04
                L 154.00 299.04
                L 269.08444444444444 227.04 L 269.08444444444444 227.04
                L 358.78 264.88
                L 538.1688888888889 227.04 L 538.1688888888889 227.04
                L 627.86 264.88
                L 807.2533333333333 227.04 L 807.2533333333333 227.04
                L 896.95 273.04
                L 1076.3377777777778 227.04 L 1076.3377777777778 227.04
                L 1186.34 300.04
                L 1345.4222222222222 227.04 L 1345.4222222222222 227.04
                L 1456.42 264.88
                L 1614.5066666666667 227.04  V 756.80 H 0 V 227.04 Z" fill="#1d1c28"></path><path d="M 0 302.71999999999997 L 0 302.72
                L 89.69 342.72
                L 269.08444444444444 302.72 L 269.08444444444444 302.72
                L 358.78 340.56
                L 538.1688888888889 302.72 L 538.1688888888889 302.72
                L 651.17 340.56
                L 807.2533333333333 302.72 L 807.2533333333333 302.72
                L 943.25 340.56
                L 1076.3377777777778 302.72 L 1076.3377777777778 302.72
                L 1231.34 369.72
                L 1345.4222222222222 302.72 L 1345.4222222222222 302.72
                L 1435.12 340.56
                L 1614.5066666666667 302.72  V 756.80 H 0 V 302.72 Z" fill="#1f1e2b"></path><path d="M 0 378.4 L 0 378.40
                L 185.00 437.40
                L 269.08444444444444 378.40 L 269.08444444444444 378.40
                L 435.08 416.24
                L 538.1688888888889 378.40 L 538.1688888888889 378.40
                L 627.86 416.24
                L 807.2533333333333 378.40 L 807.2533333333333 378.40
                L 954.25 416.24
                L 1076.3377777777778 378.40 L 1076.3377777777778 378.40
                L 1166.03 416.24
                L 1345.4222222222222 378.40 L 1345.4222222222222 378.40
                L 1439.42 452.40
                L 1614.5066666666667 378.40  V 756.80 H 0 V 378.40 Z" fill="#21202e"></path><path d="M 0 454.0799999999999 L 0 454.08
                L 89.69 509.08
                L 269.08444444444444 454.08 L 269.08444444444444 454.08
                L 358.78 491.92
                L 538.1688888888889 454.08 L 538.1688888888889 454.08
                L 627.86 529.08
                L 807.2533333333333 454.08 L 807.2533333333333 454.08
                L 935.25 517.08
                L 1076.3377777777778 454.08 L 1076.3377777777778 454.08
                L 1237.34 523.08
                L 1345.4222222222222 454.08 L 1345.4222222222222 454.08
                L 1435.12 491.92
                L 1614.5066666666667 454.08  V 756.80 H 0 V 454.08 Z" fill="#232231"></path><path d="M 0 529.76 L 0 529.76
                L 145.00 582.76
                L 269.08444444444444 529.76 L 269.08444444444444 529.76
                L 358.78 567.60
                L 538.1688888888889 529.76 L 538.1688888888889 529.76
                L 697.17 567.60
                L 807.2533333333333 529.76 L 807.2533333333333 529.76
                L 896.95 598.76
                L 1076.3377777777778 529.76 L 1076.3377777777778 529.76
                L 1166.03 567.60
                L 1345.4222222222222 529.76 L 1345.4222222222222 529.76
                L 1435.12 585.76
                L 1614.5066666666667 529.76  V 756.80 H 0 V 529.76 Z" fill="#252434"></path><path d="M 0 605.4399999999999 L 0 605.44
                L 137.00 668.44
                L 269.08444444444444 605.44 L 269.08444444444444 605.44
                L 358.78 662.44
                L 538.1688888888889 605.44 L 538.1688888888889 605.44
                L 725.17 643.28
                L 807.2533333333333 605.44 L 807.2533333333333 605.44
                L 989.25 644.44
                L 1076.3377777777778 605.44 L 1076.3377777777778 605.44
                L 1176.34 643.28
                L 1345.4222222222222 605.44 L 1345.4222222222222 605.44
                L 1454.42 643.28
                L 1614.5066666666667 605.44  V 756.80 H 0 V 605.44 Z" fill="#272637"></path><path d="M 0 681.1199999999999 L 0 681.12
                L 165.00 752.12
                L 269.08444444444444 681.12 L 269.08444444444444 681.12
                L 405.08 718.96
                L 538.1688888888889 681.12 L 538.1688888888889 681.12
                L 627.86 733.12
                L 807.2533333333333 681.12 L 807.2533333333333 681.12
                L 896.95 718.96
                L 1076.3377777777778 681.12 L 1076.3377777777778 681.12
                L 1166.03 718.96
                L 1345.4222222222222 681.12 L 1345.4222222222222 681.12
                L 1456.42 718.96
                L 1614.5066666666667 681.12  V 756.80 H 0 V 681.12 Z" fill="#29283a"></path></svg>