<svg class="border shadow-md" viewBox="0 0 1345.4222222222222 756.8" style="width: 1345.42px; height: 756.8px;" xmlns="http://www.w3.org/2000/svg" preserveAspectRatio="none"><rect class="bg" id="bg" x="0" y="0" width="1345.4222222222222" height="756.8" fill="#2F2E41"></rect><g transform="
        translate(-1614.5066666666667
        -456.18222222222226)
        scale(2.60)
                        "><path d="M1013.5,886Q919,1099,634,1166Q349,1233,256,953Q163,673,252.5,386Q342,99,614.5,200Q887,301,997.5,487Q1108,673,1013.5,886Z" fill="#2F2E41" stroke="none" stroke-width="10"></path></g><g transform="
        translate(-1419.4204444444445
        -370.83200000000005)
        scale(2.31)
                        "><path d="M1013.5,886Q919,1099,634,1166Q349,1233,256,953Q163,673,252.5,386Q342,99,614.5,200Q887,301,997.5,487Q1108,673,1013.5,886Z" fill="#2b2a3b" stroke="none" stroke-width="10"></path></g><g transform="
        translate(-1224.3342222222223
        -285.4817777777778)
        scale(2.02)
                        "><path d="M1013.5,886Q919,1099,634,1166Q349,1233,256,953Q163,673,252.5,386Q342,99,614.5,200Q887,301,997.5,487Q1108,673,1013.5,886Z" fill="#272635" stroke="none" stroke-width="10"></path></g><g transform="
        translate(-1029.248
        -200.13155555555556)
        scale(1.73)
                        "><path d="M1013.5,886Q919,1099,634,1166Q349,1233,256,953Q163,673,252.5,386Q342,99,614.5,200Q887,301,997.5,487Q1108,673,1013.5,886Z" fill="#23222f" stroke="none" stroke-width="10"></path></g><g transform="
        translate(-834.1617777777777
        -114.78133333333334)
        scale(1.44)
                        "><path d="M1013.5,886Q919,1099,634,1166Q349,1233,256,953Q163,673,252.5,386Q342,99,614.5,200Q887,301,997.5,487Q1108,673,1013.5,886Z" fill="#1f1e29" stroke="none" stroke-width="10"></path></g><g transform="
        translate(-645.8026666666666
        -32.3742222222222)
        scale(1.16)
                        "><path d="M1013.5,886Q919,1099,634,1166Q349,1233,256,953Q163,673,252.5,386Q342,99,614.5,200Q887,301,997.5,487Q1108,673,1013.5,886Z" fill="#1b1a23" stroke="none" stroke-width="10"></path></g><g transform="
        translate(-450.71644444444445
        52.976)
        scale(0.87)
                        "><path d="M1013.5,886Q919,1099,634,1166Q349,1233,256,953Q163,673,252.5,386Q342,99,614.5,200Q887,301,997.5,487Q1108,673,1013.5,886Z" fill="#17161d" stroke="none" stroke-width="10"></path></g><g transform="
        translate(-255.6302222222222
        138.32622222222224)
        scale(0.58)
                        "><path d="M1013.5,886Q919,1099,634,1166Q349,1233,256,953Q163,673,252.5,386Q342,99,614.5,200Q887,301,997.5,487Q1108,673,1013.5,886Z" fill="#131217" stroke="none" stroke-width="10"></path></g><g transform="
        translate(-60.54400000000004
        223.67644444444446)
        scale(0.29)
                        "><path d="M1013.5,886Q919,1099,634,1166Q349,1233,256,953Q163,673,252.5,386Q342,99,614.5,200Q887,301,997.5,487Q1108,673,1013.5,886Z" fill="#0f0e11" stroke="none" stroke-width="10"></path></g></svg>